<mxfile host="app.diagrams.net" modified="2021-04-06T15:41:46.973Z" agent="5.0 (Macintosh; Intel Mac OS X 10_14_6) AppleWebKit/605.1.15 (KHTML, like Gecko) Version/14.0.2 Safari/605.1.15" etag="x-3EtQtsOHvnvsH4xVbx" version="14.5.7" type="github">
  <diagram name="Page-1" id="97916047-d0de-89f5-080d-49f4d83e522f">
    <mxGraphModel dx="1572" dy="1124" grid="1" gridSize="10" guides="1" tooltips="1" connect="1" arrows="1" fold="1" page="1" pageScale="1.5" pageWidth="1169" pageHeight="827" background="#ffffff" math="0" shadow="0">
      <root>
        <mxCell id="0" />
        <mxCell id="1" parent="0" />
        <mxCell id="HnhQzy5EX_QaMLLbUmVE-83" style="edgeStyle=orthogonalEdgeStyle;rounded=1;orthogonalLoop=1;jettySize=auto;html=1;endArrow=block;endFill=1;strokeColor=#23445D;strokeWidth=4;" edge="1" parent="1" source="2" target="25">
          <mxGeometry relative="1" as="geometry" />
        </mxCell>
        <mxCell id="HnhQzy5EX_QaMLLbUmVE-84" style="edgeStyle=orthogonalEdgeStyle;rounded=1;orthogonalLoop=1;jettySize=auto;html=1;endArrow=block;endFill=1;strokeColor=#23445D;strokeWidth=4;" edge="1" parent="1" source="2" target="7">
          <mxGeometry relative="1" as="geometry" />
        </mxCell>
        <mxCell id="2" value="Лень" style="rounded=1;fillColor=#10739E;strokeColor=none;shadow=1;gradientColor=none;fontStyle=1;fontColor=#FFFFFF;fontSize=14;" parent="1" vertex="1">
          <mxGeometry x="672" y="205.5" width="200" height="60" as="geometry" />
        </mxCell>
        <mxCell id="HnhQzy5EX_QaMLLbUmVE-85" style="edgeStyle=orthogonalEdgeStyle;rounded=1;orthogonalLoop=1;jettySize=auto;html=1;entryX=0;entryY=0.5;entryDx=0;entryDy=0;endArrow=block;endFill=1;strokeColor=#23445D;strokeWidth=4;" edge="1" parent="1" source="3" target="HnhQzy5EX_QaMLLbUmVE-71">
          <mxGeometry relative="1" as="geometry" />
        </mxCell>
        <mxCell id="HnhQzy5EX_QaMLLbUmVE-86" style="edgeStyle=orthogonalEdgeStyle;rounded=1;orthogonalLoop=1;jettySize=auto;html=1;endArrow=block;endFill=1;strokeColor=#23445D;strokeWidth=4;" edge="1" parent="1">
          <mxGeometry relative="1" as="geometry">
            <mxPoint x="840" y="403.4999999999999" as="sourcePoint" />
            <mxPoint x="1290" y="448" as="targetPoint" />
            <Array as="points">
              <mxPoint x="840" y="428" />
              <mxPoint x="1290" y="428" />
            </Array>
          </mxGeometry>
        </mxCell>
        <mxCell id="3" value="(Лен)ивый" style="rounded=1;fillColor=#10739E;strokeColor=none;shadow=1;gradientColor=none;fontStyle=1;fontColor=#FFFFFF;fontSize=14;" parent="1" vertex="1">
          <mxGeometry x="730" y="345.5" width="220" height="60" as="geometry" />
        </mxCell>
        <mxCell id="4" value="(Ленив)ец / (Лени)вица" style="rounded=1;fillColor=#10739E;strokeColor=none;shadow=1;gradientColor=none;fontStyle=1;fontColor=#FFFFFF;fontSize=14;" parent="1" vertex="1">
          <mxGeometry x="760" y="450" width="200" height="60" as="geometry" />
        </mxCell>
        <mxCell id="5" value="(Ленив)о" style="rounded=1;fillColor=#10739E;strokeColor=none;shadow=1;gradientColor=none;fontStyle=1;fontColor=#FFFFFF;fontSize=14;" parent="1" vertex="1">
          <mxGeometry x="980" y="450" width="200" height="60" as="geometry" />
        </mxCell>
        <mxCell id="6" value="(Ленив)енькиий" style="rounded=1;fillColor=#10739E;strokeColor=none;shadow=1;gradientColor=none;fontStyle=1;fontColor=#FFFFFF;fontSize=14;" parent="1" vertex="1">
          <mxGeometry x="1190" y="450" width="200" height="60" as="geometry" />
        </mxCell>
        <mxCell id="7" value="(Лен)ца" style="rounded=1;fillColor=#10739E;strokeColor=none;shadow=1;gradientColor=none;fontStyle=1;fontColor=#FFFFFF;fontSize=14;" parent="1" vertex="1">
          <mxGeometry x="410" y="205.5" width="200" height="60" as="geometry" />
        </mxCell>
        <mxCell id="24" value="(Ленив)енько" style="rounded=1;fillColor=#10739E;strokeColor=none;shadow=1;gradientColor=none;fontStyle=1;fontColor=#FFFFFF;fontSize=14;" parent="1" vertex="1">
          <mxGeometry x="980" y="550" width="200" height="60" as="geometry" />
        </mxCell>
        <mxCell id="25" value="(Лен)ость" style="rounded=1;fillColor=#10739E;strokeColor=none;shadow=1;gradientColor=none;fontStyle=1;fontColor=#FFFFFF;fontSize=14;" parent="1" vertex="1">
          <mxGeometry x="980" y="205.5" width="200" height="60" as="geometry" />
        </mxCell>
        <mxCell id="26" value="(Лентяй)ничание" style="rounded=1;fillColor=#10739E;strokeColor=none;shadow=1;gradientColor=none;fontStyle=1;fontColor=#FFFFFF;fontSize=14;" parent="1" vertex="1">
          <mxGeometry x="510" y="550" width="200" height="60" as="geometry" />
        </mxCell>
        <mxCell id="29" value="" style="edgeStyle=elbowEdgeStyle;elbow=vertical;strokeWidth=4;endArrow=block;endFill=1;fontStyle=1;strokeColor=#23445D;" parent="1" edge="1">
          <mxGeometry x="30" y="170.5" width="100" height="100" as="geometry">
            <mxPoint x="770" y="271" as="sourcePoint" />
            <mxPoint x="1288" y="350.5" as="targetPoint" />
            <Array as="points">
              <mxPoint x="1288" y="295" />
            </Array>
          </mxGeometry>
        </mxCell>
        <mxCell id="30" value="" style="edgeStyle=elbowEdgeStyle;elbow=vertical;strokeWidth=4;endArrow=block;endFill=1;fontStyle=1;strokeColor=#23445D;entryX=0.5;entryY=0;entryDx=0;entryDy=0;" parent="1" source="3" target="5" edge="1">
          <mxGeometry x="22" y="165.5" width="100" height="100" as="geometry">
            <mxPoint x="22" y="265.5" as="sourcePoint" />
            <mxPoint x="772" y="456" as="targetPoint" />
          </mxGeometry>
        </mxCell>
        <mxCell id="31" value="" style="edgeStyle=elbowEdgeStyle;elbow=vertical;strokeWidth=4;endArrow=block;endFill=1;fontStyle=1;strokeColor=#23445D;" parent="1" source="3" target="4" edge="1">
          <mxGeometry x="22" y="165.5" width="100" height="100" as="geometry">
            <mxPoint x="22" y="265.5" as="sourcePoint" />
            <mxPoint x="122" y="165.5" as="targetPoint" />
          </mxGeometry>
        </mxCell>
        <mxCell id="33" value="" style="edgeStyle=elbowEdgeStyle;elbow=vertical;strokeWidth=4;endArrow=block;endFill=1;fontStyle=1;strokeColor=#23445D;exitX=0.5;exitY=1;exitDx=0;exitDy=0;" parent="1" edge="1">
          <mxGeometry x="22" y="170.5" width="100" height="100" as="geometry">
            <mxPoint x="772" y="270.5" as="sourcePoint" />
            <mxPoint x="830" y="351" as="targetPoint" />
            <Array as="points">
              <mxPoint x="800" y="295" />
              <mxPoint x="1062" y="300.5" />
            </Array>
          </mxGeometry>
        </mxCell>
        <mxCell id="HnhQzy5EX_QaMLLbUmVE-57" value="" style="edgeStyle=elbowEdgeStyle;elbow=vertical;strokeWidth=4;endArrow=block;endFill=1;fontStyle=1;strokeColor=#23445D;entryX=0.5;entryY=0;entryDx=0;entryDy=0;exitX=0.5;exitY=1;exitDx=0;exitDy=0;" edge="1" parent="1" source="5" target="24">
          <mxGeometry x="141.41" y="165.5" width="100" height="100" as="geometry">
            <mxPoint x="880" y="530" as="sourcePoint" />
            <mxPoint x="879.41" y="560" as="targetPoint" />
          </mxGeometry>
        </mxCell>
        <mxCell id="HnhQzy5EX_QaMLLbUmVE-71" value="(Ленив)ость" style="rounded=1;fillColor=#10739E;strokeColor=none;shadow=1;gradientColor=none;fontStyle=1;fontColor=#FFFFFF;fontSize=14;" vertex="1" parent="1">
          <mxGeometry x="980" y="345.5" width="200" height="60" as="geometry" />
        </mxCell>
        <mxCell id="HnhQzy5EX_QaMLLbUmVE-73" value="" style="edgeStyle=elbowEdgeStyle;elbow=vertical;strokeWidth=4;endArrow=block;endFill=1;fontStyle=1;strokeColor=#23445D;entryX=0.5;entryY=0;entryDx=0;entryDy=0;" edge="1" parent="1" target="HnhQzy5EX_QaMLLbUmVE-74">
          <mxGeometry x="-1082" y="150.5" width="100" height="100" as="geometry">
            <mxPoint x="772" y="265.5" as="sourcePoint" />
            <mxPoint x="520" y="340" as="targetPoint" />
            <Array as="points">
              <mxPoint x="570" y="295.5" />
              <mxPoint x="540" y="231.5" />
              <mxPoint x="-22" y="287.5" />
              <mxPoint x="-22" y="279.5" />
            </Array>
          </mxGeometry>
        </mxCell>
        <mxCell id="HnhQzy5EX_QaMLLbUmVE-80" style="edgeStyle=orthogonalEdgeStyle;rounded=1;orthogonalLoop=1;jettySize=auto;html=1;strokeWidth=4;endArrow=block;endFill=1;strokeColor=#23445D;" edge="1" parent="1" source="HnhQzy5EX_QaMLLbUmVE-74" target="27">
          <mxGeometry relative="1" as="geometry" />
        </mxCell>
        <mxCell id="HnhQzy5EX_QaMLLbUmVE-88" style="edgeStyle=orthogonalEdgeStyle;rounded=1;orthogonalLoop=1;jettySize=auto;html=1;endArrow=block;endFill=1;strokeColor=#23445D;strokeWidth=4;" edge="1" parent="1" source="HnhQzy5EX_QaMLLbUmVE-74" target="HnhQzy5EX_QaMLLbUmVE-77">
          <mxGeometry relative="1" as="geometry" />
        </mxCell>
        <mxCell id="HnhQzy5EX_QaMLLbUmVE-74" value="(Лен)тяй" style="rounded=1;fillColor=#10739E;strokeColor=none;shadow=1;gradientColor=none;fontStyle=1;fontColor=#FFFFFF;fontSize=14;" vertex="1" parent="1">
          <mxGeometry x="510" y="345.5" width="200" height="60" as="geometry" />
        </mxCell>
        <mxCell id="HnhQzy5EX_QaMLLbUmVE-76" value="" style="edgeStyle=elbowEdgeStyle;elbow=vertical;strokeWidth=4;endArrow=block;endFill=1;fontStyle=1;strokeColor=#23445D;exitX=0.5;exitY=1;exitDx=0;exitDy=0;entryX=0.5;entryY=0;entryDx=0;entryDy=0;" edge="1" parent="1" source="HnhQzy5EX_QaMLLbUmVE-74" target="HnhQzy5EX_QaMLLbUmVE-82">
          <mxGeometry x="-528.9300000000001" y="111" width="100" height="100" as="geometry">
            <mxPoint x="610" y="450" as="sourcePoint" />
            <mxPoint x="610" y="450" as="targetPoint" />
            <Array as="points">
              <mxPoint x="610" y="430" />
              <mxPoint x="610" y="460" />
              <mxPoint x="169.65999999999997" y="475.5" />
            </Array>
          </mxGeometry>
        </mxCell>
        <mxCell id="HnhQzy5EX_QaMLLbUmVE-77" value="(Лентяй)ничать" style="rounded=1;fillColor=#10739E;strokeColor=none;shadow=1;gradientColor=none;fontStyle=1;fontColor=#FFFFFF;fontSize=14;" vertex="1" parent="1">
          <mxGeometry x="510" y="450" width="200" height="60" as="geometry" />
        </mxCell>
        <mxCell id="HnhQzy5EX_QaMLLbUmVE-78" value="" style="edgeStyle=elbowEdgeStyle;elbow=vertical;strokeWidth=4;endArrow=block;endFill=1;fontStyle=1;strokeColor=#23445D;exitX=0.5;exitY=1;exitDx=0;exitDy=0;entryX=0.5;entryY=0;entryDx=0;entryDy=0;" edge="1" parent="1" target="26">
          <mxGeometry x="-529.35" y="215.5" width="100" height="100" as="geometry">
            <mxPoint x="609.58" y="509.9999999999999" as="sourcePoint" />
            <mxPoint x="610" y="540" as="targetPoint" />
            <Array as="points">
              <mxPoint x="609.58" y="534.5" />
              <mxPoint x="609.58" y="564.5" />
              <mxPoint x="169.23999999999998" y="580" />
            </Array>
          </mxGeometry>
        </mxCell>
        <mxCell id="HnhQzy5EX_QaMLLbUmVE-82" value="(Лентяй)ский" style="rounded=1;fillColor=#10739E;strokeColor=none;shadow=1;gradientColor=none;fontStyle=1;fontColor=#FFFFFF;fontSize=14;" vertex="1" parent="1">
          <mxGeometry x="290" y="450" width="200" height="60" as="geometry" />
        </mxCell>
        <mxCell id="27" value="(Лентяй)ский" style="rounded=1;fillColor=#10739E;strokeColor=none;shadow=1;gradientColor=none;fontStyle=1;fontColor=#FFFFFF;fontSize=14;" parent="1" vertex="1">
          <mxGeometry x="270" y="345.5" width="200" height="60" as="geometry" />
        </mxCell>
        <mxCell id="HnhQzy5EX_QaMLLbUmVE-87" style="edgeStyle=orthogonalEdgeStyle;rounded=1;orthogonalLoop=1;jettySize=auto;html=1;endArrow=block;endFill=1;strokeColor=#23445D;strokeWidth=4;" edge="1" parent="1" source="HnhQzy5EX_QaMLLbUmVE-74" target="27">
          <mxGeometry relative="1" as="geometry">
            <mxPoint x="200" y="450" as="targetPoint" />
            <mxPoint x="510" y="375.5999999999999" as="sourcePoint" />
          </mxGeometry>
        </mxCell>
        <mxCell id="HnhQzy5EX_QaMLLbUmVE-89" value="(Лен)иться" style="rounded=1;fillColor=#10739E;strokeColor=none;shadow=1;gradientColor=none;fontStyle=1;fontColor=#FFFFFF;fontSize=14;" vertex="1" parent="1">
          <mxGeometry x="1190" y="345.5" width="200" height="60" as="geometry" />
        </mxCell>
      </root>
    </mxGraphModel>
  </diagram>
</mxfile>
